<?xml version="1.0" standalone="no"?>
<!DOCTYPE svg PUBLIC "-//W3C//DTD SVG 20010904//EN"
 "http://www.w3.org/TR/2001/REC-SVG-20010904/DTD/svg10.dtd">
<svg version="1.0" xmlns="http://www.w3.org/2000/svg"
 width="1042.000000pt" height="1042.000000pt" viewBox="0 0 1042.000000 1042.000000"
 preserveAspectRatio="xMidYMid meet">
<metadata>
Created by potrace 1.11, written by Peter Selinger 2001-2013
</metadata>
<g transform="translate(0.000000,1042.000000) scale(0.100000,-0.100000)"
fill="#000000" stroke="none">
<path d="M3978 10415 c-2 -1 -73 -6 -158 -9 -85 -4 -171 -8 -190 -10 -19 -3
-82 -7 -140 -11 -58 -3 -114 -8 -125 -10 -11 -2 -51 -7 -90 -10 -38 -3 -83 -7
-100 -9 -16 -2 -59 -7 -95 -11 -36 -4 -73 -9 -82 -10 -9 -2 -45 -6 -79 -10
-35 -4 -66 -8 -69 -10 -3 -2 -30 -6 -60 -9 -30 -4 -91 -13 -135 -21 -44 -8
-98 -17 -120 -21 -112 -16 -412 -84 -620 -139 -103 -27 -433 -135 -489 -159
-17 -7 -56 -24 -86 -36 -154 -63 -274 -122 -409 -202 -479 -287 -701 -619
-686 -1028 8 -217 108 -426 304 -635 60 -64 223 -243 251 -275 9 -11 57 -63
106 -117 104 -113 110 -119 190 -209 74 -83 102 -114 163 -179 25 -27 93 -102
150 -165 58 -63 143 -157 190 -209 47 -52 93 -102 101 -111 19 -22 169 -187
195 -214 11 -12 40 -44 64 -71 24 -28 67 -75 95 -105 28 -30 92 -100 141 -155
50 -55 99 -109 110 -121 25 -26 174 -190 198 -218 10 -12 33 -37 51 -56 41
-44 340 -374 381 -419 16 -19 37 -41 46 -50 9 -9 40 -43 70 -76 130 -145 216
-241 249 -276 19 -21 67 -72 105 -115 39 -43 79 -87 90 -99 11 -11 40 -43 64
-70 24 -28 67 -75 95 -105 28 -30 139 -152 245 -270 107 -118 199 -220 205
-225 6 -6 22 -23 35 -38 l25 -27 1 -1223 c1 -1329 3 -1283 -56 -1400 -161
-319 -549 -554 -1014 -613 -22 -3 -47 -7 -55 -10 -9 -3 -11 -2 -5 4 6 5 36 14
67 21 336 72 608 375 643 715 l6 59 -73 -7 c-107 -9 -316 -35 -368 -46 -25 -5
-63 -11 -85 -14 -33 -4 -290 -57 -345 -71 -428 -110 -719 -245 -880 -407 -173
-175 -168 -365 16 -537 115 -108 287 -203 525 -291 68 -25 336 -105 385 -114
10 -2 77 -16 149 -31 71 -14 145 -28 165 -31 19 -2 46 -6 60 -9 14 -2 40 -7
58 -10 17 -3 44 -7 60 -9 51 -9 140 -19 277 -31 44 -4 94 -9 110 -10 215 -24
838 -24 1130 0 133 10 191 16 215 20 14 2 50 7 80 10 85 9 191 23 230 30 58
12 76 15 115 21 22 3 67 12 100 19 33 8 72 16 86 19 48 8 263 66 359 97 250
80 497 210 615 322 54 52 112 144 125 198 53 219 -132 426 -530 592 -241 101
-654 209 -925 242 -27 3 -61 8 -75 10 -14 2 -49 7 -79 10 -30 4 -62 8 -71 10
-9 2 -54 6 -100 10 l-83 7 6 -70 c24 -253 187 -492 427 -624 41 -22 139 -59
230 -87 32 -9 31 -10 -19 -5 -89 8 -199 33 -326 76 -341 113 -600 331 -706
593 l-24 60 -3 1253 -2 1252 22 23 c13 13 41 43 62 68 22 24 80 89 130 143 93
102 102 111 170 187 114 126 232 256 246 270 8 9 49 53 90 99 41 46 98 109
126 139 28 31 102 112 164 181 104 114 170 186 210 230 8 9 35 38 59 66 24 27
65 72 90 99 25 28 89 97 141 155 52 58 116 128 141 155 25 28 74 82 110 120
35 39 68 75 74 81 5 6 39 44 75 84 36 40 76 85 90 99 14 15 65 71 115 126 49
55 92 102 95 105 3 3 50 55 105 115 55 61 118 130 141 155 23 25 92 101 154
170 63 69 130 143 150 165 21 22 65 72 100 110 35 39 84 93 109 120 25 28 89
97 141 155 52 58 100 110 105 116 6 6 46 50 90 99 44 49 107 117 139 152 32
35 66 72 75 82 9 10 50 55 91 101 248 273 337 502 305 780 -18 160 -69 292
-168 438 l-57 83 73 33 c39 18 104 48 142 66 188 87 515 254 920 471 50 26
162 85 250 131 305 158 464 242 461 245 -1 2 -85 -31 -185 -72 -100 -42 -244
-101 -319 -131 -75 -31 -173 -71 -217 -89 -44 -18 -132 -54 -195 -79 -63 -26
-128 -53 -145 -60 -16 -8 -114 -48 -216 -90 -103 -41 -229 -95 -280 -119 -52
-24 -116 -54 -144 -67 -27 -13 -96 -45 -153 -71 -57 -27 -106 -49 -108 -49 -3
0 -38 27 -77 61 -260 219 -678 419 -1177 563 -85 24 -392 101 -440 110 -14 2
-59 11 -100 20 -41 8 -102 20 -135 26 -57 10 -77 13 -135 25 -14 2 -45 7 -70
10 -25 4 -85 12 -135 20 -86 13 -127 18 -232 30 -27 3 -64 8 -83 10 -39 5 -98
11 -205 20 -38 3 -83 8 -100 10 -16 2 -88 7 -160 11 -71 3 -148 8 -170 10 -49
5 -952 13 -957 9z m772 -420 c113 -4 228 -8 255 -10 28 -2 97 -6 154 -10 57
-4 113 -8 124 -11 11 -2 61 -6 111 -9 50 -3 98 -8 106 -10 8 -2 38 -6 65 -9
120 -14 142 -16 185 -22 25 -4 54 -8 65 -10 11 -2 43 -7 70 -10 42 -5 122 -19
400 -69 17 -3 37 -8 45 -10 8 -2 29 -7 46 -10 63 -10 324 -78 469 -121 208
-63 396 -134 560 -213 123 -60 325 -175 325 -186 0 -3 -24 -15 -52 -29 -29
-13 -98 -45 -153 -71 -55 -26 -131 -62 -170 -80 -38 -18 -101 -47 -140 -65
-38 -18 -101 -47 -140 -65 -173 -81 -386 -180 -455 -212 -41 -20 -102 -48
-135 -63 -33 -15 -107 -50 -165 -77 -58 -28 -130 -62 -160 -76 -86 -39 -177
-81 -275 -127 -49 -23 -117 -55 -150 -70 -57 -26 -150 -69 -312 -146 -40 -19
-92 -43 -117 -53 l-44 -19 -34 37 c-197 220 -590 276 -1013 144 -94 -29 -116
-39 -255 -105 -275 -133 -518 -359 -622 -578 l-33 -70 -60 6 c-71 6 -114 11
-175 20 -54 7 -90 12 -150 19 -369 44 -1017 201 -1327 320 -611 236 -934 523
-934 829 0 83 14 135 61 223 141 262 516 496 1095 682 181 58 495 139 655 168
14 2 57 10 95 18 93 19 269 47 365 60 50 6 117 16 141 20 8 2 48 6 88 10 40 3
80 8 89 10 9 1 57 6 105 10 48 3 96 8 105 10 16 2 163 13 277 20 28 2 149 6
270 10 121 4 221 8 222 9 3 3 333 -3 523 -9z m3155 -859 c180 -185 227 -390
134 -580 -163 -330 -680 -614 -1474 -808 -192 -46 -521 -111 -685 -133 -25 -3
-56 -8 -70 -10 -23 -3 -115 -16 -150 -20 -8 -1 -46 -6 -85 -10 -38 -4 -83 -9
-100 -11 -16 -2 -64 -7 -105 -10 -41 -3 -78 -8 -82 -10 -22 -14 -23 12 -2 65
50 122 70 262 50 348 -7 31 -7 31 79 72 48 23 88 41 90 41 2 0 57 25 122 56
65 31 145 69 178 84 33 15 168 78 300 140 132 62 265 124 295 137 30 14 106
50 168 79 62 30 114 54 116 54 2 0 55 24 117 54 63 29 218 102 344 161 318
148 398 185 565 264 80 38 149 70 153 70 5 1 24 -14 42 -33z m-6164 -1702 c24
-8 51 -17 59 -19 8 -2 96 -25 195 -50 99 -26 189 -49 200 -51 11 -2 43 -8 70
-14 86 -18 96 -20 260 -49 88 -16 180 -32 205 -36 25 -3 56 -8 70 -10 14 -2
63 -9 110 -15 47 -6 96 -13 110 -15 14 -2 57 -7 95 -11 39 -4 73 -9 78 -10 4
-1 14 -2 23 -3 9 0 -15 -17 -53 -37 -248 -131 -414 -218 -638 -334 -77 -40
-145 -77 -151 -81 -7 -6 -41 24 -95 83 -46 51 -105 115 -130 143 -25 27 -65
72 -90 99 -24 27 -53 59 -64 70 -11 12 -60 66 -110 121 -104 115 -173 191
-197 217 -23 23 -7 24 53 2z m5293 -26 c-22 -24 -55 -60 -74 -82 -44 -48 -64
-71 -170 -186 -47 -51 -93 -102 -103 -114 -10 -12 -53 -59 -95 -105 -42 -46
-84 -91 -92 -101 -21 -24 -196 -216 -273 -300 -23 -25 -78 -85 -121 -133 l-79
-88 -41 45 c-49 52 -112 91 -221 135 -109 44 -364 107 -510 127 -27 3 -59 8
-70 10 -38 8 -284 34 -386 41 -221 16 -797 9 -996 -12 -592 -62 -961 -175
-1066 -324 l-17 -25 -58 65 c-32 35 -108 118 -168 184 -60 66 -112 122 -116
123 -18 8 -5 24 29 38 42 17 175 72 268 111 33 13 69 28 80 33 11 4 45 18 75
30 30 11 64 25 75 30 17 8 177 73 369 152 l48 19 16 -23 c81 -123 278 -223
482 -246 100 -12 267 -5 361 13 13 3 35 7 49 10 174 32 397 124 548 224 69 47
56 44 297 56 77 4 154 8 170 11 17 2 68 6 115 9 47 4 96 8 110 10 14 2 54 7
90 10 57 5 272 32 400 51 54 7 317 51 345 57 32 7 99 20 115 22 8 1 38 8 65
15 28 6 61 14 75 16 70 14 342 85 425 112 87 29 92 27 49 -20z"/>
</g>
</svg>
