<?xml version="1.0" encoding="UTF-8"?>
<svg viewBox="0 0 24 25" version="1.1" xmlns="http://www.w3.org/2000/svg" xmlns:xlink="http://www.w3.org/1999/xlink">
  <g id="Page-1" stroke="none" stroke-width="1" fill-rule="evenodd">
      <path d="M23.848,0.203 L20.172,1.71 L18.987,2.263 C17.344,0.722 13.532,0 9.917,0 C5.191,0 0.117,1.228 0.01,3.916 C0.009,3.944 0,3.971 0,4 C0,4.542 0.202,5.025 0.562,5.452 L9.417,15.193 L9.417,21.008 L9.416,21.008 C9.408,21.766 8.297,22.999 6.249,22.999 C7.724,22.999 8.416,21.905 8.418,21.064 C5.831,21.288 3.917,22.067 3.917,23 C3.917,24.105 6.604,25 9.917,25 C13.231,25 15.917,24.105 15.917,23 C15.917,22.067 14.004,21.288 11.417,21.065 C11.418,21.906 12.111,23 13.586,23 C11.537,23 10.426,21.767 10.419,21.009 C10.418,21.009 10.418,21.009 10.417,21.009 L10.417,15.194 L19.245,5.483 L19.245,5.48 C19.244,5.48 19.243,5.481 19.243,5.482 C19.618,5.047 19.834,4.556 19.834,4 C19.834,3.971 19.825,3.944 19.824,3.916 C19.803,3.408 19.605,2.953 19.265,2.547 L20.329,2.05 L23.848,0.203 Z M1.385,4.871 C1.136,4.595 1,4.303 1,4 C1,2.343 4.992,1 9.917,1 C13.489,1 16.563,1.709 17.986,2.73 L12.054,5.497 C11.563,4.796 10.273,4.672 9.03,5.252 C8.192,5.643 7.592,6.256 7.353,6.868 C4.541,6.583 2.307,5.849 1.419,4.91 L1.385,4.871 Z M7.183,7.846 L5.089,8.946 L3.42,7.11 C4.529,7.47 5.831,7.705 7.183,7.846 Z M13.877,9.901 C13.675,9.396 11.99,9 9.917,9 C7.844,9 6.159,9.396 5.957,9.901 L5.097,8.955 L7.397,8.012 C7.858,8.761 9.182,8.905 10.458,8.311 C10.674,8.21 10.868,8.09 11.051,7.964 C12.968,7.884 14.87,7.611 16.415,7.11 L13.877,9.901 Z M18.834,4 C18.834,4.303 18.697,4.596 18.448,4.872 L18.415,4.909 C17.481,5.898 15.057,6.656 12.038,6.905 C12.229,6.541 12.302,6.17 12.213,5.837 L18.309,2.994 C18.643,3.309 18.834,3.646 18.834,4 Z" id="Shape" fill="#000000" fill-rule="nonzero"></path>
  </g>
</svg>
