<?xml version="1.0" encoding="UTF-8"?>
<svg viewBox="0 0 49 39" version="1.1" xmlns="http://www.w3.org/2000/svg" xmlns:xlink="http://www.w3.org/1999/xlink">
  <g stroke="none" stroke-width="1" fill-rule="evenodd">
    <g transform="translate(0.604000, 0.884000)" fill-rule="nonzero">
        <path d="M47.292,36.231 L38.624,36.231 L38.624,32.438 L44.251,32.438 C45.515,32.438 46.542,31.411 46.542,30.147 L46.542,20.813 C46.542,19.549 45.515,18.521 44.251,18.521 C42.986,18.521 41.958,19.549 41.958,20.813 L41.958,27.688 L38.624,27.688 L38.624,13.98 C38.624,11.751 36.811,9.938 34.583,9.938 C32.355,9.938 30.542,11.751 30.542,13.98 L30.542,22.521 L26.542,22.521 L26.542,13.938 C26.542,12.33 25.233,11.021 23.624,11.021 C22.016,11.021 20.708,12.33 20.708,13.938 L20.708,25.772 C20.708,27.375 22.007,28.679 23.662,28.679 C23.668,28.679 23.674,28.679 23.679,28.679 C23.702,28.682 23.768,28.688 23.792,28.688 L30.542,28.688 L30.542,36.231 L7.667,36.231 C7.391,36.231 7.167,36.455 7.167,36.731 C7.167,37.007 7.391,37.231 7.667,37.231 L47.293,37.231 C47.569,37.231 47.793,37.007 47.793,36.731 C47.793,36.455 47.569,36.231 47.292,36.231 Z M31.042,27.688 L23.819,27.689 C23.782,27.684 23.746,27.681 23.624,27.688 C22.567,27.688 21.708,26.829 21.708,25.772 L21.708,13.938 C21.708,12.881 22.567,12.021 23.624,12.021 C24.682,12.021 25.542,12.881 25.542,13.938 L25.542,23.021 C25.542,23.297 25.766,23.521 26.042,23.521 L31.042,23.521 C31.318,23.521 31.542,23.297 31.542,23.021 L31.542,13.98 C31.542,12.303 32.906,10.938 34.583,10.938 C36.26,10.938 37.624,12.303 37.624,13.98 L37.624,28.188 C37.624,28.464 37.848,28.688 38.124,28.688 L42.458,28.688 C42.734,28.688 42.958,28.464 42.958,28.188 L42.958,20.813 C42.958,20.1 43.538,19.521 44.251,19.521 C44.963,19.521 45.542,20.1 45.542,20.813 L45.542,30.147 C45.542,30.859 44.963,31.438 44.3,31.441 C44.277,31.437 44.186,31.435 44.167,31.438 L38.124,31.438 C37.848,31.438 37.624,31.662 37.624,31.938 L37.624,36.231 L31.542,36.231 L31.542,28.188 C31.542,27.912 31.319,27.688 31.042,27.688 Z"></path>
        <path d="M2.625,36.231 L0.5,36.231 C0.224,36.231 0,36.455 0,36.731 C0,37.007 0.224,37.231 0.5,37.231 L2.625,37.231 C2.901,37.231 3.125,37.007 3.125,36.731 C3.125,36.455 2.901,36.231 2.625,36.231 Z"></path>
        <path d="M5.875,36.231 L4.125,36.231 C3.849,36.231 3.625,36.455 3.625,36.731 C3.625,37.007 3.849,37.231 4.125,37.231 L5.875,37.231 C6.151,37.231 6.375,37.007 6.375,36.731 C6.375,36.455 6.152,36.231 5.875,36.231 Z"></path>
        <path d="M13.153,2.122 C13.837,1.399 14.762,1 15.757,1 C17.734,1 19.342,2.608 19.342,4.585 C19.342,6.561 17.734,8.169 15.757,8.169 L2.63,8.169 C2.354,8.169 2.13,8.393 2.13,8.669 C2.13,8.945 2.354,9.169 2.63,9.169 L15.757,9.169 C18.285,9.169 20.342,7.113 20.342,4.585 C20.342,2.057 18.285,-1.77635684e-15 15.757,-1.77635684e-15 C14.502,-1.77635684e-15 13.288,0.523 12.426,1.435 C12.236,1.635 12.245,1.952 12.446,2.142 C12.645,2.331 12.963,2.324 13.153,2.122 Z"></path>
        <path d="M0.5,5.844 L8.282,5.844 C9.892,5.844 11.203,4.533 11.203,2.923 C11.203,1.312 9.892,0.001 8.282,0.001 C7.483,0.001 6.709,0.334 6.159,0.916 C5.969,1.117 5.978,1.433 6.179,1.623 C6.379,1.812 6.696,1.805 6.886,1.603 C7.253,1.214 7.749,1 8.282,1 C9.341,1 10.203,1.862 10.203,2.922 C10.203,3.981 9.341,4.843 8.282,4.843 L0.5,4.843 C0.224,4.843 0,5.067 0,5.343 C0,5.619 0.223,5.844 0.5,5.844 Z"></path>
    </g>
  </g>
</svg>
