<?xml version="1.0" encoding="UTF-8"?>
<svg viewBox="0 0 79 63" version="1.1" xmlns="http://www.w3.org/2000/svg" xmlns:xlink="http://www.w3.org/1999/xlink">
  <g stroke="none" stroke-width="1" fill-rule="evenodd">
      <path d="M74.1,23 L70.1,23 L70.1,3.9 C70.1,1.8 68.4,0 66.3,0 L3.8,0 C1.7,0 0,1.7 0,3.9 L0,46 C0,48.1 1.7,49.9 3.8,49.9 L6.3,49.9 L6.3,59.2 L6.3,60.5 C6.3,61.9 7.3,63 8.6,63 L17.9,63 C19.2,63 20.2,61.9 20.2,60.5 L20.2,59.2 L20.2,49.9 L30.3,49.9 L28.1,59 L24.6,59 C23.5,59 22.6,59.9 22.6,61 C22.6,62.1 23.5,63 24.6,63 L45.1,63 C46.2,63 47.1,62.1 47.1,61 C47.1,59.9 46.2,59 45.1,59 L42.1,59 L39.9,49.9 L52.1,49.9 L52.1,57 L52.1,59 C52.1,61.2 54,63 56.2,63 L74.1,63 C76.4,63 78.2,61.2 78.2,59 L78.2,57 L78.2,29.8 L78.2,27 C78.2,24.8 76.4,23 74.1,23 Z M18.2,59.2 L8.4,59.2 L8.4,49.9 L8.4,45.9 L8.4,43.9 C8.4,43.6 8.6,43.4 8.7,43.4 L18,43.4 C18.1,43.4 18.3,43.6 18.3,43.9 L18.3,45.9 L18.3,49.9 L18.3,59.2 L18.2,59.2 Z M20.2,45.9 L20.2,43.9 C20.2,42.5 19.2,41.4 17.9,41.4 L8.6,41.4 C7.3,41.4 6.3,42.5 6.3,43.9 L6.3,45.9 L4,45.9 L4,4 L66,4 L66,23 L56.1,23 C53.8,23 52,24.8 52,27 L52,29.8 L52,45.9 L20.2,45.9 Z M65.2,61.5 C64.4,61.5 63.8,60.9 63.8,60.1 C63.8,59.3 64.4,58.7 65.2,58.7 C66,58.7 66.6,59.3 66.6,60.1 C66.5,60.9 65.9,61.5 65.2,61.5 Z M76.1,57 L54.2,57 L54.2,49.8 L54.2,45.8 L54.2,29.8 L66.1,29.8 L70.1,29.8 L76.1,29.8 L76.1,57 L76.1,57 Z" id="Shape" fill="#000000" fill-rule="nonzero"></path>
  </g>
</svg>
