<?xml version="1.0" encoding="UTF-8"?>
<svg viewBox="0 0 64 16" version="1.1" xmlns="http://www.w3.org/2000/svg" xmlns:xlink="http://www.w3.org/1999/xlink">
    <g id="Page-1" stroke="none" stroke-width="1" fill="none" fill-rule="evenodd">
        <path d="M0.475668909,15.33156 C0.545767486,15.33156 0.597506911,15.3165389 0.630887185,15.2864966 C0.664267459,15.2564544 0.704323789,15.2347572 0.751056173,15.2214051 C0.797788557,15.208053 0.841182913,15.1863558 0.881239243,15.1563136 C0.921295572,15.1262713 0.988056121,15.1112502 1.08152089,15.1112502 L1.08152089,15.1112502 L1.43201377,15.1312784 L1.86261931,15.0711939 C1.88932353,15.0711939 1.94773901,15.0361446 2.03786575,14.966046 C2.12799249,14.8959474 2.20142909,14.8041517 2.25817556,14.6906587 C2.31492203,14.5771658 3.37140771,12.898138 5.42763261,9.65357534 C6.01512544,9.89391332 7.15339279,10.6649977 8.84243467,11.9668284 C9.51004016,12.4875606 10.1793147,12.9999478 10.8502582,13.50399 C11.5212017,14.0080321 12.1404058,14.4269546 12.7078704,14.7607573 C13.2753351,15.0945601 13.7293068,15.2614614 14.0697856,15.2614614 C14.4102644,15.2614614 14.6589475,15.1913629 14.8158348,15.0511657 C14.9727221,14.9109685 15.1629896,14.6205602 15.3866375,14.1799405 C15.6102853,13.7393209 15.7221092,13.4722787 15.7221092,13.378814 C15.7221092,13.2719971 15.6653627,13.2185886 15.5518698,13.2185886 C15.5385177,13.2185886 15.4700881,13.26699 15.3465811,13.3637928 C15.2230741,13.4605956 15.0745319,13.508997 14.9009545,13.508997 C14.4002504,13.508997 13.0617014,12.7045324 10.8853075,11.0956032 C9.26302613,9.84050488 7.97788557,8.9425755 7.02988578,8.40181505 C9.92729359,7.07328013 12.5176029,5.69801283 14.8008136,4.27601314 C16.2962499,3.34136546 17.4946018,2.4701403 18.3958692,1.66233766 C18.4759818,1.58890106 18.5160382,1.49877432 18.5160382,1.39195744 C18.5160382,1.01142231 18.0921087,0.757732228 17.2442497,0.630887185 L17.2442497,0.630887185 L16.8837428,0.530746362 C16.8103062,0.530746362 16.7535597,0.564126636 16.7135034,0.630887185 C16.5399259,0.87122516 15.3883065,1.66400668 13.258645,3.00923173 C11.1289835,4.35445679 9.23632191,5.45767486 7.5806603,6.31888593 C8.81573045,4.36947791 9.85719501,2.75387263 10.705054,1.4720701 C10.7584624,1.38528139 10.7851666,1.29181662 10.7851666,1.19167579 C10.7851666,1.09153497 10.7484483,1.01142231 10.6750117,0.951337819 C10.6015751,0.891253325 10.5515047,0.836175872 10.5248005,0.786105461 C10.4980963,0.736035049 10.464716,0.694309706 10.4246597,0.660929432 C10.3846033,0.627549158 10.3328639,0.602513952 10.2694414,0.585823815 C10.2060189,0.569133678 10.1359203,0.532415376 10.0591457,0.475668909 C9.98237104,0.418922443 9.82047671,0.39054921 9.57346268,0.39054921 C9.32644865,0.39054921 8.95592761,0.549105513 8.46189955,0.866218119 C7.96787149,1.18333073 7.46382934,1.50044333 6.94977312,1.81755594 C6.43571689,2.13466854 6.0351536,2.29322485 5.74808324,2.29322485 C5.46101288,2.29322485 5.3174777,2.24649246 5.3174777,2.1530277 L5.3174777,2.1530277 L5.39759036,1.91268972 C5.39759036,1.85928128 5.37088614,1.83257706 5.3174777,1.83257706 C5.26406926,1.83257706 5.16726647,1.86929536 5.02706932,1.94273197 C4.88687216,2.01616857 4.74166797,2.14635164 4.59145674,2.33328118 C4.4412455,2.52021071 4.36613988,2.76054869 4.36613988,3.0542951 C4.36613988,3.34804152 4.46294268,3.61007667 4.65654827,3.84040056 C4.85015386,4.07072446 5.11385803,4.1858864 5.44766077,4.1858864 C6.14197048,4.1858864 6.87633651,3.82204141 7.65075888,3.09435143 C6.96980128,4.15584416 5.9984353,5.61790017 4.73666093,7.48051948 C4.46294268,7.44046315 4.21259062,7.42043499 3.98560476,7.42043499 C3.75861889,7.42043499 3.53330204,7.54227299 3.3096542,7.78594899 C3.08600636,8.02962499 2.97418244,8.273301 2.97418244,8.516977 C2.97418244,8.760653 3.19783028,8.882491 3.64512596,8.882491 L3.64512596,8.882491 L3.83539352,8.882491 C1.4720701,12.4007719 0.242006989,14.2600532 0.145204193,14.4603348 C0.0484013978,14.6606165 0,14.8008136 0,14.8809263 C0,14.961039 0.0617535075,15.0561727 0.185260523,15.1663276 C0.308767538,15.2764826 0.405570333,15.33156 0.475668909,15.33156 Z M16.3329682,15.3015178 C16.8470245,15.3015178 17.4194962,15.1296093 18.0503834,14.7857925 C18.6812705,14.4419757 19.2687634,14.0013561 19.8128618,13.4639337 C20.3569603,12.9265112 20.8559954,12.3523705 21.3099671,11.7415115 C21.7639389,11.1306525 22.1211078,10.5298075 22.3814739,9.93897669 C22.6418401,9.34814583 22.7720232,8.86746988 22.7720232,8.49694883 C22.7720232,8.12642779 22.6668753,7.85104053 22.4565796,7.67078704 C22.2462838,7.49053356 22.0409951,7.40040682 21.8407135,7.40040682 C21.6404319,7.40040682 21.4935587,7.40708288 21.4000939,7.42043499 L21.4000939,7.42043499 L21.4000939,7.36035049 C21.4000939,7.31361811 21.3667136,7.26020967 21.2999531,7.20012518 C21.1130235,7.01987169 20.8359672,6.92974495 20.4687842,6.92974495 C19.6476295,6.92974495 18.6929536,7.36702655 17.6047567,8.24158974 C17.0840244,8.66885725 16.6000104,9.15120221 16.1527148,9.68862463 C15.7054191,10.226047 15.3399051,10.8452511 15.0561727,11.5462369 C14.7724404,12.2472227 14.6305742,12.8864549 14.6305742,13.4639337 C14.6305742,14.0414124 14.7857925,14.4920461 15.0962291,14.8158348 C15.4066656,15.1396234 15.818912,15.3015178 16.3329682,15.3015178 Z M16.553278,13.8194336 C16.2795598,13.8194336 16.1427007,13.632504 16.1427007,13.258645 C16.1560528,12.5042508 16.5899963,11.5796172 17.4445314,10.4847442 C17.8651228,9.93730767 18.3424608,9.46330778 18.8765451,9.06274448 C19.4106295,8.66218119 19.9213477,8.38178689 20.4086997,8.22156157 C20.4086997,8.56204037 20.5255307,8.73227977 20.7591926,8.73227977 L20.7591926,8.73227977 L20.8292912,8.73227977 C20.922756,8.73227977 20.9694883,8.8207375 20.9694883,8.99765295 C20.9694883,9.1745684 20.8376363,9.50837115 20.5739321,9.99906118 C20.3102279,10.4897512 19.9130027,11.068899 19.3822563,11.7365045 C18.8515099,12.4041099 18.3157565,12.9181662 17.7749961,13.2786731 C17.2342356,13.6391801 16.8269963,13.8194336 16.553278,13.8194336 Z M25.1103114,15.4016586 C25.8079591,15.4016586 26.6541491,15.2180671 27.6488812,14.8508841 C28.1495854,14.6706306 28.6202472,14.4586658 29.0608668,14.2149898 C29.5014865,13.9713138 29.8703385,13.6742294 30.1674229,13.3237365 C30.4645074,12.9732436 30.6130496,12.6461169 30.6130496,12.3423564 C30.6130496,12.0385959 30.5462891,11.8867157 30.412768,11.8867157 C30.3259792,11.8867157 30.2158243,11.9434622 30.0823032,12.0569551 C29.9487821,12.170448 29.8319512,12.2689198 29.7318104,12.3523705 C29.6316695,12.4358212 29.4080217,12.5877015 29.0608668,12.8080113 C28.720388,13.0283211 28.3882543,13.2069055 28.0644657,13.3437647 C27.740677,13.4806238 27.3284306,13.6074688 26.8277265,13.7242998 C26.3270224,13.8411308 25.8279873,13.8995462 25.3306212,13.8995462 C24.8332551,13.8995462 24.4794242,13.7810463 24.2691285,13.5440463 C24.0588327,13.3070464 23.9536849,13.024983 23.9536849,12.6978564 C23.9536849,11.8833777 24.2874876,11.0989412 24.9550931,10.344547 C25.2621916,9.99739217 25.5876493,9.68361759 25.9314661,9.40322328 C26.2752829,9.12282898 26.6574871,8.85578678 27.0780785,8.6020967 C27.49867,8.34840661 27.8925572,8.22156157 28.2597403,8.22156157 C28.3331769,8.22156157 28.3698952,8.26996297 28.3698952,8.36676576 C28.3698952,8.46356856 28.2697543,8.64882908 28.0694727,8.92254733 C27.869191,9.19626558 27.7690502,9.38653315 27.7690502,9.49335002 C27.7690502,9.90058937 27.982684,10.104209 28.4099515,10.104209 C28.7771345,10.104209 29.1393105,9.85218797 29.4964794,9.34814583 C29.8536484,8.84410369 30.0322328,8.41182913 30.0322328,8.05132217 C30.0322328,7.69081521 29.8886976,7.40708288 29.6016273,7.20012518 C29.3145569,6.99316748 28.9907683,6.88968862 28.6302613,6.88968862 C27.8825432,6.88968862 27.1264799,7.06326605 26.3620717,7.4104209 C25.5976634,7.75757576 24.9267199,8.20987847 24.3492411,8.76732906 C23.7717624,9.32477964 23.2994315,9.97235696 22.9322485,10.710061 C22.5650655,11.4477651 22.3814739,12.1854691 22.3814739,12.9231732 C22.3814739,13.6608773 22.6618683,14.2583842 23.2226569,14.7156939 C23.7834455,15.1730037 24.4126636,15.4016586 25.1103114,15.4016586 Z M35.2595838,15.3816304 C35.8470766,15.3816304 36.4679497,15.1129192 37.1222031,14.5754968 C37.7764565,14.0380744 38.200386,13.5824336 38.3939916,13.2085746 C38.4340479,13.1284619 38.454076,12.9849267 38.454076,12.777969 C38.454076,12.5710113 38.4407239,12.3707297 38.4140197,12.1771241 C38.3873155,11.9835185 38.3105409,11.8867157 38.1836958,11.8867157 C38.1035832,11.8867157 38.0418297,11.9067439 37.9984353,11.9468002 C37.9550409,11.9868565 37.836541,12.1120325 37.6429354,12.3223283 C37.4493298,12.532624 37.2490481,12.7412507 37.0420904,12.9482084 C36.4879779,13.5156731 36.020654,13.8261096 35.6401189,13.8795181 C34.9391332,13.8795181 34.3182601,13.1484901 33.7774996,11.686434 C34.4584572,11.4060397 35.3096542,10.831899 36.3310906,9.96401189 C36.8050905,9.55677254 37.2123298,9.11448391 37.5528086,8.63714599 C37.8932874,8.15980806 38.0668649,7.76592083 38.0735409,7.45548427 C38.080217,7.14504772 38.0117874,6.92139989 37.8682522,6.78454076 C37.7247171,6.64768164 37.5511396,6.57925207 37.3475199,6.57925207 C37.1439003,6.57925207 36.9553017,6.63933657 36.7817243,6.75950555 C36.6081469,6.87967454 36.5163511,7.07328013 36.506337,7.34032233 C36.496323,7.60736452 35.9839357,8.14812497 34.9691754,8.96260366 C33.9544151,9.77708236 33.1866688,10.2878006 32.6659365,10.4947583 C32.8194857,10.2076879 33.7491264,8.54535023 35.4548584,5.50774527 C37.1605904,2.4701403 38.0301466,0.887915298 38.0635268,0.761070255 L38.0635268,0.761070255 L38.0635268,0.690971679 C38.0635268,0.597506911 38.0351536,0.52073228 37.9784071,0.460647786 C37.9216607,0.400563292 37.8615762,0.370521045 37.7981537,0.370521045 C37.7347311,0.370521045 37.6829917,0.382204141 37.6429354,0.405570333 C37.602879,0.428936525 37.5294424,0.468992855 37.4226256,0.525739321 C37.3158087,0.582485787 37.2139989,0.627549158 37.1171961,0.660929432 C37.0203933,0.694309706 36.9269285,0.726020967 36.8368018,0.756063214 C36.746675,0.786105461 36.6865905,0.807802639 36.6565483,0.821154749 C36.626506,0.834506859 36.5797736,0.861211078 36.5163511,0.901267407 C36.4529286,0.941323737 36.3961821,0.989725134 36.3461117,1.0464716 C36.2960413,1.10321807 36.2192667,1.19334481 36.1157878,1.31685182 C36.012309,1.44035884 34.8590205,3.49491472 32.6559224,7.48051948 C30.4528243,11.4661242 29.2811767,13.6959266 29.1409795,14.1699265 C29.1209513,14.236687 29.0975851,14.3017785 29.0708809,14.3652011 C29.0441767,14.4286236 29.0241485,14.478694 29.0107964,14.5154123 C28.9974443,14.5521306 28.9907683,14.5805038 28.9907683,14.600532 C28.9907683,14.6205602 28.9957753,14.6372503 29.0057894,14.6506024 C29.0158035,14.6639545 29.0375007,14.7006728 29.0708809,14.7607573 C29.197726,14.9877432 29.3579513,15.1112502 29.5515569,15.1312784 L29.5515569,15.1312784 L30.1924581,15.2714755 C30.2792469,15.2714755 30.3460074,15.2180671 30.3927398,15.1112502 C30.3994158,15.1045741 30.4344651,15.0344756 30.4978877,14.9009545 C30.5613102,14.7674334 30.6430918,14.598863 30.7432327,14.3952433 C30.8433735,14.1916236 30.9535284,13.9663068 31.0736974,13.7192928 C31.1938664,13.4722787 31.3273875,13.2052365 31.4742607,12.9181662 C31.6211339,12.6310958 31.754655,12.3640536 31.874824,12.1170396 C31.8881761,12.1370678 31.9465916,12.2488917 32.0500704,12.4525113 C32.1535493,12.656131 32.2319929,12.8030042 32.2854013,12.893131 C32.3388098,12.9832577 32.4272675,13.135138 32.5507745,13.3487717 C32.6742815,13.5624055 32.7844364,13.7293068 32.8812392,13.8494758 C32.978042,13.9696448 33.09988,14.1215251 33.2467532,14.3051166 C33.3936265,14.4887081 33.5371616,14.6339123 33.6773588,14.7407292 C33.8175559,14.847546 34.0111615,14.9810671 34.2581756,15.1412924 C34.5051896,15.3015178 34.8389923,15.3816304 35.2595838,15.3816304 Z M39.2852449,15.4116727 C39.7458927,15.4116727 40.2065404,15.2647995 40.6671882,14.971053 C41.127836,14.6773066 41.6953007,14.240025 42.3695822,13.6592083 C42.6700047,13.3988421 42.8202159,13.1050957 42.8202159,12.777969 C42.8202159,12.1771241 42.7334272,11.8767016 42.5598498,11.8767016 C42.5064413,11.8767016 42.1058781,12.2105044 41.3581599,12.8781098 C41.0777656,13.1251239 40.7706671,13.3537788 40.4368643,13.5640745 C40.1030616,13.7743702 39.7993011,13.8795181 39.5255829,13.8795181 C39.2518646,13.8795181 39.1150055,13.749335 39.1150055,13.4889689 C39.1150055,13.3621238 39.1283576,13.1985605 39.1550618,12.9982788 C39.2151463,12.5576592 39.7308715,11.4611172 40.7022375,9.70865279 C41.6736035,7.95618839 42.4296667,6.66604079 42.9704272,5.83820998 C43.1306525,5.83153393 43.9851875,5.75142127 45.5340322,5.59787201 C45.7276378,5.57784384 45.9095603,5.51942836 46.0797997,5.42262557 C46.2500391,5.32582277 46.3351588,5.2073228 46.3351588,5.06712565 C46.3351588,4.92692849 46.2917645,4.82178063 46.2049757,4.75168205 C46.118187,4.68158348 46.0230533,4.57810463 45.9195744,4.4412455 C45.8160956,4.30438638 45.7242998,4.22093569 45.6441871,4.19089344 C45.5640745,4.1608512 45.4155323,4.14583007 45.1985605,4.14583007 C44.9815887,4.14583007 44.6127367,4.16585824 44.0920044,4.20591457 C44.1053565,4.17921035 44.2071663,4.01731602 44.3974339,3.72023158 C44.5877015,3.42314713 44.7529338,3.15777395 44.893131,2.92411203 C45.0333281,2.69045011 45.1034267,2.54691493 45.1034267,2.49350649 C45.1034267,2.44009805 45.0800605,2.38335159 45.0333281,2.32326709 C44.9865957,2.2631826 44.9331873,2.23314035 44.8731028,2.23314035 L44.8731028,2.23314035 L44.4625254,2.13299953 L43.9918636,2.19308402 C43.8917227,2.19308402 43.8249622,2.20476712 43.7915819,2.22813331 C43.7582016,2.2514995 43.6363636,2.38335159 43.4260679,2.62368956 C43.2157722,2.86402754 42.83023,3.40478798 42.2694414,4.2459709 L42.2694414,4.2459709 L41.368174,4.28602723 C41.2747092,4.29270328 41.1395191,4.29937934 40.9626037,4.30605539 C40.7856882,4.31273145 40.6254629,4.3194075 40.4819277,4.32608355 C40.3383925,4.33275961 40.1898503,4.34110468 40.036301,4.35111876 C39.8827518,4.36113284 39.6540969,4.45626662 39.3503364,4.63652011 C39.0465759,4.81677359 38.8713295,4.98033693 38.8245971,5.12721014 C38.8045689,5.18729463 38.7461534,5.27074532 38.6493506,5.3775622 C38.5525479,5.48437907 38.5041465,5.59453398 38.5041465,5.70802691 C38.5041465,5.82151985 38.5942732,5.91665363 38.7745267,5.99342826 C38.9547802,6.07020289 39.1417097,6.1085902 39.3353153,6.1085902 L39.3353153,6.1085902 L39.425442,6.1085902 C39.5522871,6.1085902 40.0029208,6.06519585 40.7773431,5.97840714 L40.7773431,5.97840714 L41.1578783,5.92833672 C40.4368643,7.06326605 39.7158504,8.27830804 38.9948365,9.57346268 C38.5542169,10.3679132 38.1887029,11.1173004 37.8982945,11.8216242 C37.6078861,12.5259479 37.4610129,13.1251239 37.457609,13.6191519 C37.4543368,14.11318 37.5778438,14.5053982 37.8281959,14.7958066 C38.078548,15.086215 38.4707662,15.2814896 39.0048506,15.3816304 C39.0916393,15.4016586 39.1851041,15.4116727 39.2852449,15.4116727 Z M48.1126584,15.3816304 C48.6500808,15.3816304 49.2475878,15.1145882 49.9051792,14.5805038 C50.5627706,14.0464194 50.9883691,13.5891097 51.1819747,13.2085746 C51.222031,13.1284619 51.2420591,12.9849267 51.2420591,12.777969 C51.2420591,12.5710113 51.228707,12.3707297 51.2020028,12.1771241 C51.1752986,11.9835185 51.098524,11.8867157 50.9716789,11.8867157 C50.8915663,11.8867157 50.8314818,11.9034058 50.7914254,11.9367861 C50.7513691,11.9701664 50.6295311,12.1003494 50.4259114,12.3273353 C50.2222918,12.5543212 50.013665,12.7763 49.8000313,12.9932718 C49.5863975,13.2102436 49.3427215,13.4138632 49.0690033,13.6041308 C48.795285,13.7943984 48.5582851,13.8895322 48.3580034,13.8895322 C48.1577218,13.8895322 48.057581,13.7059406 48.057581,13.3387576 C48.057581,13.2185886 48.0675951,13.1251239 48.0876232,13.0583633 C48.187764,12.5176029 48.4097429,11.8650185 48.7535597,11.1006102 C49.0973765,10.336202 49.4111511,9.70865279 49.6948834,9.21796276 C49.9786158,8.72727273 50.1638763,8.43853335 50.250665,8.35174464 C50.3374537,8.26495593 50.3808481,8.1280968 50.3808481,7.94116727 C50.3808481,7.59401241 50.127158,7.42043499 49.6197778,7.42043499 C49.399468,7.42043499 49.2342356,7.45214625 49.1240807,7.51556877 C49.0139258,7.57899129 48.8787357,7.73087154 48.7185104,7.97120951 C48.6584259,7.79095603 48.5148907,7.6407448 48.2879049,7.52057581 C48.060919,7.40040682 47.7671726,7.34032233 47.4066656,7.34032233 C46.4720179,7.34032233 45.4505815,7.77426589 44.3423564,8.64215303 C43.8149481,9.05606843 43.3309341,9.5150472 42.8903145,10.0190893 C42.4496949,10.5231315 42.094195,11.0805821 41.8238147,11.6914411 C41.5534345,12.3023001 41.4182444,12.9098211 41.4182444,13.5140041 C41.4182444,14.118187 41.6018359,14.5905179 41.9690189,14.9309967 C42.2560893,15.204715 42.6266103,15.3415741 43.0805821,15.3415741 C43.5345538,15.3415741 44.1203776,15.091222 44.8380535,14.5905179 C45.5557294,14.0898138 46.1916236,13.4789548 46.7457362,12.7579409 C46.6122151,13.0583633 46.5454545,13.4071872 46.5454545,13.8044125 C46.5454545,14.2016377 46.6722996,14.5638137 46.9259897,14.8909404 C47.1796798,15.2180671 47.575236,15.3816304 48.1126584,15.3816304 Z M43.2007511,13.7192928 C43.06723,13.7192928 43.0004694,13.6024618 43.0004694,13.3687999 C43.0004694,13.135138 43.1823919,12.7011944 43.5462369,12.0669692 C43.9100819,11.432744 44.3089762,10.8886455 44.7429197,10.4346738 C45.9646378,9.16622333 47.1462995,8.53199812 48.2879049,8.53199812 C47.3799614,9.78042038 46.7724404,10.5982371 46.4653419,10.9854483 C46.1849476,11.3326031 45.6174829,11.8750326 44.7629479,12.6127367 C43.9084129,13.3504407 43.3876806,13.7192928 43.2007511,13.7192928 Z M55.2126428,5.75809732 C55.5965159,5.75809732 55.965368,5.56616075 56.3191989,5.18228759 C56.6730298,4.79841444 56.8499452,4.4162103 56.8499452,4.03567517 C56.8499452,3.85542169 56.7965368,3.71522453 56.6897199,3.61508371 C56.582903,3.51494289 56.4393679,3.46487248 56.2591144,3.46487248 C55.851875,3.46487248 55.479685,3.64679497 55.1425442,4.01063996 C54.8054034,4.37448495 54.636833,4.75668909 54.636833,5.15725239 C54.636833,5.55781568 54.8287696,5.75809732 55.2126428,5.75809732 Z M51.7427633,15.4417149 C52.2701716,15.4417149 52.8910447,15.2364262 53.6053826,14.8258488 C54.3197204,14.4152715 54.8404527,13.87618 55.1675794,13.2085746 C55.2076357,13.1217858 55.2276639,12.9782507 55.2276639,12.777969 C55.2276639,12.1771241 55.1408752,11.8767016 54.9672978,11.8767016 C54.880509,11.8767016 54.5233401,12.2138424 53.895791,12.8881239 C53.655453,13.141814 53.3700516,13.3738069 53.0395869,13.5841026 C52.7091222,13.7943984 52.3903406,13.8995462 52.0832421,13.8995462 C51.7761435,13.8995462 51.6225943,13.7860533 51.6225943,13.5590674 C51.6225943,13.378814 51.6893548,13.1551661 51.8228759,12.8881239 C51.8896365,12.7612789 51.9480519,12.652793 51.9981224,12.5626662 C52.0481928,12.4725395 52.1182913,12.3590466 52.2084181,12.2221875 C52.2985448,12.0853283 52.3536223,11.9968706 52.3736504,11.9568143 C53.9625515,9.21963177 54.757002,7.77426589 54.757002,7.62071663 C54.757002,7.46716737 54.6735513,7.29692797 54.50665,7.10999844 C54.3397486,6.9230689 54.1511501,6.82960413 53.9408543,6.82960413 C53.7305586,6.82960413 53.4267981,6.97480832 53.0295728,7.26521671 C52.6323476,7.5556251 52.2952068,7.84937151 52.0181505,8.14645595 C51.7410942,8.4435404 51.6025661,8.6271319 51.6025661,8.69723048 C51.6025661,8.76732906 51.6709957,8.87581495 51.8078548,9.02268816 C51.9447139,9.16956136 52.0131435,9.26803317 52.0131435,9.31810358 C52.0131435,9.36817399 51.829552,9.69029364 51.462369,10.2844625 C51.0951859,10.8786314 50.7280029,11.5262087 50.3608199,12.2271945 C49.9936369,12.9281803 49.8100454,13.4622646 49.8100454,13.8294477 C49.8100454,14.1966307 50.0003129,14.5571376 50.3808481,14.9109685 C50.7613832,15.2647995 51.2153549,15.4417149 51.7427633,15.4417149 Z M56.7898607,15.4216867 C57.4174099,15.4216867 58.0816774,15.2531164 58.7826631,14.9159756 C59.4836489,14.5788348 60.1145361,14.0664476 60.6753247,13.378814 C60.7687894,13.258645 60.8155218,13.0683774 60.8155218,12.8080113 L60.8155218,12.8080113 L60.8155218,12.6077296 C60.8155218,12.1203776 60.7354092,11.8767016 60.5751839,11.8767016 C60.4149585,11.8767016 60.0010431,12.2205184 59.3334376,12.9081521 C59.0797476,13.1685182 58.7809941,13.4055182 58.4371773,13.6191519 C58.0933605,13.8327857 57.7712408,13.9396026 57.4708183,13.9396026 C57.1703959,13.9396026 56.9183748,13.8511448 56.7147551,13.6742294 C56.5111355,13.4973139 56.4093256,13.2987013 56.4093256,13.0783915 C56.4093256,12.8580817 56.4343608,12.6394409 56.4844312,12.4224691 C56.5345016,12.2054973 56.5628749,12.0569551 56.5695509,11.9768424 C57.6377197,10.7951807 58.7526209,9.46330778 59.9142544,7.9812236 C60.6486205,7.04657591 61.3062119,6.16366766 61.8870286,5.33249883 C62.4678454,4.50133 62.9652115,3.6868513 63.3791269,2.88906274 C63.7930423,2.09127419 64,1.50545037 64,1.1315913 C64,0.757732228 63.878162,0.475668909 63.634486,0.285401346 C63.39081,0.0951337819 63.1087467,0 62.788296,0 C61.7468315,0 60.2413811,1.39529547 58.2719449,4.1858864 C57.3973817,5.42095655 56.6112763,6.91806186 55.9136285,8.67720232 C55.2159808,10.4363428 54.8671569,11.9668284 54.8671569,13.2686591 C54.8671569,13.9362645 55.0307203,14.4620039 55.357847,14.845877 C55.6849737,15.2297502 56.1623116,15.4216867 56.7898607,15.4216867 Z M56.9801283,9.70364575 C57.3740155,8.50195588 57.792938,7.50388567 58.2368956,6.70943514 C58.6808533,5.91498461 59.4001982,4.85015386 60.3949304,3.51494289 C61.3896625,2.17973191 62.0038596,1.51212643 62.2375215,1.51212643 C62.3042821,1.51212643 62.3376623,1.56219684 62.3376623,1.66233766 C62.3376623,2.1296615 61.6416836,3.35304856 60.2497262,5.33249883 C58.8577687,7.3119491 57.7679028,8.76899807 56.9801283,9.70364575 Z" id="Kocktail" fill="#FF9D84" fill-rule="nonzero"></path>
    </g>
</svg>